<?xml version="1.0" standalone="no"?>
<!DOCTYPE svg PUBLIC "-//W3C//DTD SVG 20010904//EN"
 "http://www.w3.org/TR/2001/REC-SVG-20010904/DTD/svg10.dtd">
<svg version="1.0" xmlns="http://www.w3.org/2000/svg"
 width="1920.000000pt" height="1080.000000pt" viewBox="0 0 1920.000000 1080.000000"
 preserveAspectRatio="xMidYMid meet">

<g transform="translate(0.000000,1080.000000) scale(0.100000,-0.100000)"
fill="#000000" stroke="none">
<path d="M9100 9523 c-54 -3 -248 -31 -305 -43 -187 -39 -485 -144 -620 -219
-115 -64 -180 -103 -214 -130 -20 -15 -47 -34 -61 -41 -33 -18 -159 -121 -243
-200 -81 -75 -261 -269 -271 -291 -5 -12 -7 -12 -12 1 -14 32 -183 195 -274
264 -188 143 -259 166 -522 166 -247 0 -400 -51 -514 -171 -67 -72 -152 -213
-191 -322 -23 -64 -25 -82 -20 -163 3 -50 11 -109 18 -132 7 -23 10 -44 7 -47
-3 -3 -22 3 -44 12 -33 15 -69 18 -239 18 -266 -1 -405 -27 -531 -101 -64 -37
-171 -139 -193 -183 -83 -163 -56 -344 76 -535 94 -134 178 -222 322 -335 75
-58 309 -168 401 -186 19 -4 48 -14 65 -21 16 -7 65 -20 108 -30 43 -9 74 -21
70 -25 -4 -4 -64 -17 -132 -29 -217 -38 -307 -65 -446 -134 -71 -36 -154 -85
-183 -109 -129 -107 -281 -311 -328 -443 -19 -51 -24 -85 -24 -162 0 -208 60
-315 289 -518 128 -113 267 -190 417 -230 97 -26 103 -26 319 -20 279 7 343
18 596 97 125 39 145 49 539 273 36 20 85 50 110 67 103 70 230 149 240 149 5
0 10 -15 10 -34 0 -74 79 -433 124 -559 65 -186 100 -238 220 -332 118 -91
188 -133 406 -243 265 -133 276 -136 464 -129 192 7 265 24 640 149 229 76
626 277 773 391 77 60 182 169 227 235 l36 54 10 -27 c5 -14 10 -31 10 -37 0
-13 41 -105 77 -173 101 -188 181 -267 298 -292 68 -14 411 -6 495 12 146 31
335 112 471 201 78 52 235 191 300 266 69 80 82 111 87 208 3 77 1 92 -28 165
-18 44 -42 91 -54 103 l-21 24 35 -6 c19 -3 62 -10 94 -16 87 -15 321 -12 434
5 112 17 131 23 305 99 70 31 183 81 252 111 216 94 240 111 291 203 68 124
82 282 37 409 -21 61 -38 87 -95 148 -39 41 -88 88 -111 103 -23 16 -64 43
-90 61 -72 49 -325 154 -467 193 -77 21 -106 23 -302 23 -119 0 -214 3 -212 6
9 16 152 104 211 131 89 40 178 103 241 173 84 92 112 214 112 490 0 315 -28
485 -101 607 -23 37 -48 73 -56 80 -9 7 -52 58 -96 113 -45 55 -146 164 -226
243 -154 151 -187 173 -346 230 -157 56 -429 35 -625 -49 -56 -24 -137 -70
-198 -114 -134 -95 -132 -93 -219 -207 -40 -54 -78 -98 -83 -98 -5 0 -19 19
-31 43 -12 23 -36 62 -54 87 -18 25 -45 71 -60 103 -52 111 -233 317 -334 380
-25 16 -56 38 -69 50 -32 30 -83 60 -197 116 -144 71 -209 81 -509 79 -132 -1
-261 -3 -286 -5z m601 -49 c143 -26 316 -121 515 -282 69 -55 193 -210 234
-292 18 -36 48 -85 65 -110 18 -25 43 -65 56 -89 13 -24 30 -54 37 -67 7 -13
19 -24 26 -24 12 0 70 68 156 183 58 77 233 202 360 256 195 84 451 104 605
49 155 -56 193 -80 330 -215 72 -70 167 -173 211 -228 45 -55 88 -106 97 -113
34 -28 97 -150 117 -227 30 -116 43 -294 37 -505 -5 -209 -26 -315 -75 -385
-41 -59 -136 -131 -232 -177 -89 -42 -178 -98 -244 -155 -22 -18 -47 -33 -57
-33 -9 0 -22 -7 -29 -15 -26 -32 2 -36 151 -24 197 16 370 7 484 -25 83 -22
127 -39 331 -123 39 -16 93 -45 120 -63 27 -18 68 -46 91 -62 23 -16 66 -56
96 -89 65 -72 107 -174 107 -262 0 -118 -42 -246 -104 -315 -25 -28 -58 -46
-222 -118 -68 -29 -181 -79 -251 -110 -71 -31 -146 -63 -168 -70 -115 -42
-413 -57 -575 -29 -47 8 -112 19 -145 24 -70 12 -95 0 -57 -27 73 -53 89 -72
121 -156 30 -77 33 -94 29 -159 -7 -110 -41 -161 -204 -309 -136 -123 -281
-209 -464 -276 -125 -46 -210 -61 -394 -68 -162 -7 -185 -5 -297 28 -76 22
-162 134 -257 333 -10 22 -29 76 -42 120 -36 124 -47 131 -84 50 -41 -89 -138
-205 -239 -282 -149 -115 -545 -316 -773 -391 -367 -122 -448 -141 -630 -149
-176 -7 -191 -3 -454 129 -209 106 -287 152 -399 238 -108 82 -149 154 -224
385 -24 74 -88 395 -102 508 -4 27 -12 50 -20 53 -11 5 -129 -66 -275 -165
-25 -17 -74 -47 -110 -67 -394 -224 -414 -234 -539 -273 -251 -79 -317 -90
-586 -97 -205 -6 -212 -6 -309 20 -212 57 -441 214 -577 398 -72 97 -90 153
-96 288 -4 93 -2 112 20 172 47 130 185 320 306 421 26 21 105 67 176 103 138
68 216 92 460 139 140 26 211 43 235 55 24 11 18 35 -10 38 -47 5 -255 53
-285 66 -17 7 -46 17 -65 21 -91 18 -326 127 -400 185 -160 126 -283 267 -354
408 -98 193 -77 377 54 495 142 128 297 171 615 171 170 0 196 -2 244 -20 52
-21 54 -23 83 -95 32 -80 61 -120 78 -103 6 6 -1 30 -19 69 -16 33 -28 61 -26
63 5 6 81 -36 94 -52 16 -19 47 -21 57 -5 8 14 -20 37 -107 85 l-67 36 -16 67
c-9 36 -20 102 -23 146 -5 70 -2 89 20 152 36 98 121 248 177 307 56 61 177
121 286 141 96 19 303 19 416 1 103 -17 157 -44 298 -152 95 -72 215 -191 258
-255 13 -19 29 -43 36 -53 18 -26 36 -12 36 27 1 46 13 63 144 202 111 118
267 256 340 300 18 11 49 33 70 48 34 27 99 66 211 128 101 56 334 145 485
185 123 34 153 40 285 59 145 20 161 21 431 23 174 2 253 -2 315 -14z"/>
<path d="M13095 5392 c-47 -26 -136 -96 -174 -136 -27 -28 -32 -39 -23 -48 9
-9 21 -3 55 28 115 108 165 134 257 134 101 0 308 -45 412 -90 149 -64 273
-183 340 -325 27 -58 30 -74 25 -126 -11 -121 -78 -195 -254 -280 -119 -57
-129 -60 -221 -66 -81 -5 -110 -2 -171 15 -157 45 -319 176 -411 333 -45 76
-50 90 -50 145 0 57 22 145 42 171 5 6 22 13 36 15 36 4 36 32 0 36 -15 2 -38
-4 -52 -13 -35 -23 -66 -121 -66 -209 0 -67 3 -76 50 -156 97 -165 282 -317
441 -362 62 -17 91 -20 180 -15 105 5 108 6 233 67 192 92 274 184 284 320 4
62 1 75 -27 136 -68 146 -217 289 -368 354 -174 75 -464 114 -538 72z"/>
<path d="M14749 4442 c-66 -24 -178 -100 -195 -133 -24 -47 -44 -150 -44 -230
0 -63 4 -82 23 -110 28 -41 71 -53 263 -70 205 -19 280 -4 381 74 45 34 64 57
78 92 36 97 -4 231 -97 318 l-50 47 -113 0 c-91 0 -114 3 -119 15 -7 20 -67
18 -127 -3z m377 -79 c41 -31 94 -135 101 -197 6 -53 -17 -122 -49 -146 -119
-87 -174 -99 -371 -81 -201 18 -233 26 -247 62 -16 38 -8 174 15 247 13 43 25
59 61 85 89 63 84 62 278 59 174 -3 179 -4 212 -29z"/>
</g>
</svg>
