<svg version="1.2" xmlns="http://www.w3.org/2000/svg" viewBox="0 0 1920 1080" width="1920" height="1080">
	<title>Bubble</title>
	<style>
		.s0 { fill: #000000 } 
	</style>
	<g>
		<path class="s0" d="m964 125.7c-5.4 0.3-24.8 3.1-30.5 4.3-18.7 3.9-48.5 14.4-62 21.9-11.5 6.4-18 10.3-21.4 13-2 1.5-4.7 3.4-6.1 4.1-3.3 1.8-15.9 12.1-24.3 20-8.1 7.5-26.1 26.9-27.1 29.1-0.5 1.2-0.7 1.2-1.2-0.1-1.4-3.2-18.3-19.5-27.4-26.4-18.8-14.3-25.9-16.6-52.2-16.6-24.7 0-40 5.1-51.4 17.1-6.7 7.2-15.2 21.3-19.1 32.2-2.3 6.4-2.5 8.2-2 16.3 0.3 5 1.1 10.9 1.8 13.2 0.7 2.3 1 4.4 0.7 4.7-0.3 0.3-2.2-0.3-4.4-1.2-3.3-1.5-6.9-1.8-23.9-1.8-26.6 0.1-40.5 2.7-53.1 10.1-6.4 3.7-17.1 13.9-19.3 18.3-8.3 16.3-5.6 34.4 7.6 53.5 9.4 13.4 17.8 22.2 32.2 33.5 7.5 5.8 30.9 16.8 40.1 18.6 1.9 0.4 4.8 1.4 6.5 2.1 1.6 0.7 6.5 2 10.8 3 4.3 0.9 7.4 2.1 7 2.5-0.4 0.4-6.4 1.7-13.2 2.9-21.7 3.8-30.7 6.5-44.6 13.4-7.1 3.6-15.4 8.5-18.3 10.9-12.9 10.7-28.1 31.1-32.8 44.3-1.9 5.1-2.4 8.5-2.4 16.2 0 20.8 6 31.5 28.9 51.8 12.8 11.3 26.7 19 41.7 23 9.7 2.6 10.3 2.6 31.9 2 27.9-0.7 34.3-1.8 59.6-9.7 12.5-3.9 14.5-4.9 53.9-27.3 3.6-2 8.5-5 11-6.7 10.3-7 23-14.9 24-14.9 0.5 0 1 1.5 1 3.4 0 7.4 7.9 43.3 12.4 55.9 6.5 18.6 10 23.8 22 33.2 11.8 9.1 18.8 13.3 40.6 24.3 26.5 13.3 27.6 13.6 46.4 12.9 19.2-0.7 26.5-2.4 64-14.9 22.9-7.6 62.6-27.7 77.3-39.1 7.7-6 18.2-16.9 22.7-23.5l3.6-5.4 1 2.7c0.5 1.4 1 3.1 1 3.7 0 1.3 4.1 10.5 7.7 17.3 10.1 18.8 18.1 26.7 29.8 29.2 6.8 1.4 41.1 0.6 49.5-1.2 14.6-3.1 33.5-11.2 47.1-20.1 7.8-5.2 23.5-19.1 30-26.6 6.9-8 8.2-11.1 8.7-20.8 0.3-7.7 0.1-9.2-2.8-16.5-1.8-4.4-4.2-9.1-5.4-10.3l-2.1-2.4 3.5 0.6c1.9 0.3 6.2 1 9.4 1.6 8.7 1.5 32.1 1.2 43.4-0.5 11.2-1.7 13.1-2.3 30.5-9.9 7-3.1 18.3-8.1 25.2-11.1 21.6-9.4 24-11.1 29.1-20.3 6.8-12.4 8.2-28.2 3.7-40.9-2.1-6.1-3.8-8.7-9.5-14.8-3.9-4.1-8.8-8.8-11.1-10.3-2.3-1.6-6.4-4.3-9-6.1-7.2-4.9-32.5-15.4-46.7-19.3-7.7-2.1-10.6-2.3-30.2-2.3-11.9 0-21.4-0.3-21.2-0.6 0.9-1.6 15.2-10.4 21.1-13.1 8.9-4 17.8-10.3 24.1-17.3 8.4-9.2 11.2-21.4 11.2-49 0-31.5-2.8-48.5-10.1-60.7-2.3-3.7-4.8-7.3-5.6-8-0.9-0.7-5.2-5.8-9.6-11.3-4.5-5.5-14.6-16.4-22.6-24.3-15.4-15.1-18.7-17.3-34.6-23-15.7-5.6-42.9-3.5-62.5 4.9-5.6 2.4-13.7 7-19.8 11.4-13.4 9.5-13.2 9.3-21.9 20.7-4 5.4-7.8 9.8-8.3 9.8-0.5 0-1.9-1.9-3.1-4.3-1.2-2.3-3.6-6.2-5.4-8.7-1.8-2.5-4.5-7.1-6-10.3-5.2-11.1-23.3-31.7-33.4-38-2.5-1.6-5.6-3.8-6.9-5-3.2-3-8.3-6-19.7-11.6-14.4-7.1-20.9-8.1-50.9-7.9-13.2 0.1-26.1 0.3-28.6 0.5zm60.1 4.9c14.3 2.6 31.6 12.1 51.5 28.2 6.9 5.5 19.3 21 23.4 29.2 1.8 3.6 4.8 8.5 6.5 11 1.8 2.5 4.3 6.5 5.6 8.9 1.3 2.4 3 5.4 3.7 6.7 0.7 1.3 1.9 2.4 2.6 2.4 1.2 0 7-6.8 15.6-18.3 5.8-7.7 23.3-20.2 36-25.6 19.5-8.4 45.1-10.4 60.5-4.9 15.5 5.6 19.3 8 33 21.5 7.2 7 16.7 17.3 21.1 22.8 4.5 5.5 8.8 10.6 9.7 11.3 3.4 2.8 9.7 15 11.7 22.7 3 11.6 4.3 29.4 3.7 50.5-0.5 20.9-2.6 31.5-7.5 38.5-4.1 5.9-13.6 13.1-23.2 17.7-8.9 4.2-17.8 9.8-24.4 15.5-2.2 1.8-4.7 3.3-5.7 3.3-0.9 0-2.2 0.7-2.9 1.5-2.6 3.2 0.2 3.6 15.1 2.4 19.7-1.6 37-0.7 48.4 2.5 8.3 2.2 12.7 3.9 33.1 12.3 3.9 1.6 9.3 4.5 12 6.3 2.7 1.8 6.8 4.6 9.1 6.2 2.3 1.6 6.6 5.6 9.6 8.9 6.5 7.2 10.7 17.4 10.7 26.2 0 11.8-4.2 24.6-10.4 31.5-2.5 2.8-5.8 4.6-22.2 11.8-6.8 2.9-18.1 7.9-25.1 11-7.1 3.1-14.6 6.3-16.8 7-11.5 4.2-41.3 5.7-57.5 2.9-4.7-0.8-11.2-1.9-14.5-2.4-7-1.2-9.5 0-5.7 2.7 7.3 5.3 8.9 7.2 12.1 15.6 3 7.7 3.3 9.4 2.9 15.9-0.7 11-4.1 16.1-20.4 30.9-13.6 12.3-28.1 20.9-46.4 27.6-12.5 4.6-21 6.1-39.4 6.8-16.2 0.7-18.5 0.5-29.7-2.8-7.6-2.2-16.2-13.4-25.7-33.3-1-2.2-2.9-7.6-4.2-12-3.6-12.4-4.7-13.1-8.4-5-4.1 8.9-13.8 20.5-23.9 28.2-14.9 11.5-54.5 31.6-77.3 39.1-36.7 12.2-44.8 14.1-63 14.9-17.6 0.7-19.1 0.3-45.4-12.9-20.9-10.6-28.7-15.2-39.9-23.8-10.8-8.2-14.9-15.4-22.4-38.5-2.4-7.4-8.8-39.5-10.2-50.8-0.4-2.7-1.2-5-2-5.3-1.1-0.5-12.9 6.6-27.5 16.5-2.5 1.7-7.4 4.7-11 6.7-39.4 22.4-41.4 23.4-53.9 27.3-25.1 7.9-31.7 9-58.6 9.7-20.5 0.6-21.2 0.6-30.9-2-21.2-5.7-44.1-21.4-57.7-39.8-7.2-9.7-9-15.3-9.6-28.8-0.4-9.3-0.2-11.2 2-17.2 4.7-13 18.5-32 30.6-42.1 2.6-2.1 10.5-6.7 17.6-10.3 13.8-6.8 21.6-9.2 46-13.9 14-2.6 21.1-4.3 23.5-5.5 2.4-1.1 1.8-3.5-1-3.8-4.7-0.5-25.5-5.3-28.5-6.6-1.7-0.7-4.6-1.7-6.5-2.1-9.1-1.8-32.6-12.7-40-18.5-16-12.6-28.3-26.7-35.4-40.8-9.8-19.3-7.7-37.7 5.4-49.5 14.2-12.8 29.7-17.1 61.5-17.1 17 0 19.6 0.2 24.4 2 5.2 2.1 5.4 2.3 8.3 9.5 3.2 8 6.1 12 7.8 10.3 0.6-0.6-0.1-3-1.9-6.9-1.6-3.3-2.8-6.1-2.6-6.3 0.5-0.6 8.1 3.6 9.4 5.2 1.6 1.9 4.7 2.1 5.7 0.5 0.8-1.4-2-3.7-10.7-8.5l-6.7-3.6-1.6-6.7c-0.9-3.6-2-10.2-2.3-14.6-0.5-7-0.2-8.9 2-15.2 3.6-9.8 12.1-24.8 17.7-30.7 5.6-6.1 17.7-12.1 28.6-14.1 9.6-1.9 30.3-1.9 41.6-0.1 10.3 1.7 15.7 4.4 29.8 15.2 9.5 7.2 21.5 19.1 25.8 25.5 1.3 1.9 2.9 4.3 3.6 5.3 1.8 2.6 3.6 1.2 3.6-2.7 0.1-4.6 1.3-6.3 14.4-20.2 11.1-11.8 26.7-25.6 34-30 1.8-1.1 4.9-3.3 7-4.8 3.4-2.7 9.9-6.6 21.1-12.8 10.1-5.6 33.4-14.5 48.5-18.5 12.3-3.4 15.3-4 28.5-5.9 14.5-2 16.1-2.1 43.1-2.3 17.4-0.2 25.3 0.2 31.5 1.4z"/>
		<path class="s0" d="m1309.5 540.8c-4.7 2.6-13.6 9.6-17.4 13.6-2.7 2.8-3.2 3.9-2.3 4.8 0.9 0.9 2.1 0.3 5.5-2.8 11.5-10.8 16.5-13.4 25.7-13.4 10.1 0 30.8 4.5 41.2 9 14.9 6.4 27.3 18.3 34 32.5 2.7 5.8 3 7.4 2.5 12.6-1.1 12.1-7.8 19.5-25.4 28-11.9 5.7-12.9 6-22.1 6.6-8.1 0.5-11 0.2-17.1-1.5-15.7-4.5-31.9-17.6-41.1-33.3-4.5-7.6-5-9-5-14.5 0-5.7 2.2-14.5 4.2-17.1 0.5-0.6 2.2-1.3 3.6-1.5 3.6-0.4 3.6-3.2 0-3.6-1.5-0.2-3.8 0.4-5.2 1.3-3.5 2.3-6.6 12.1-6.6 20.9 0 6.7 0.3 7.6 5 15.6 9.7 16.5 28.2 31.7 44.1 36.2 6.2 1.7 9.1 2 18 1.5 10.5-0.5 10.8-0.6 23.3-6.7 19.2-9.2 27.4-18.4 28.4-32 0.4-6.2 0.1-7.5-2.7-13.6-6.8-14.6-21.7-28.9-36.8-35.4-17.4-7.5-46.4-11.4-53.8-7.2z"/>
		<path class="s0" d="m1474.9 635.8c-6.6 2.4-17.8 10-19.5 13.3-2.4 4.7-4.4 15-4.4 23 0 6.3 0.4 8.2 2.3 11 2.8 4.1 7.1 5.3 26.3 7 20.5 1.9 28 0.4 38.1-7.4 4.5-3.4 6.4-5.7 7.8-9.2 3.6-9.7-0.4-23.1-9.7-31.8l-5-4.7h-11.3c-9.1 0-11.4-0.3-11.9-1.5-0.7-2-6.7-1.8-12.7 0.3zm37.7 7.9c4.1 3.1 9.4 13.5 10.1 19.7 0.6 5.3-1.7 12.2-4.9 14.6-11.9 8.7-17.4 9.9-37.1 8.1-20.1-1.8-23.3-2.6-24.7-6.2-1.6-3.8-0.8-17.4 1.5-24.7 1.3-4.3 2.5-5.9 6.1-8.5 8.9-6.3 8.4-6.2 27.8-5.9 17.4 0.3 17.9 0.4 21.2 2.9z"/>
	</g>
</svg>